<?xml version="1.0" encoding="UTF-8"?>
<!-- Generated by Pixelmator Pro 3.3.2 -->
<svg width="200" height="200" viewBox="0 0 200 200" xmlns="http://www.w3.org/2000/svg" xmlns:xlink="http://www.w3.org/1999/xlink">
    <g id="g1">
        <path id="path1" fill="#f8e71c" stroke="none" d="M 179.642944 99.572876 C 179.642944 143.755676 143.825714 179.572876 99.642944 179.572876 C 55.460159 179.572876 19.642944 143.755676 19.642944 99.572876 C 19.642944 55.390076 55.460159 19.572876 99.642944 19.572876 C 143.825714 19.572876 179.642944 55.390076 179.642944 99.572876 Z"/>
        <path id="path2" fill="#fe3d50" stroke="none" d="M 155.527466 99.572876 C 155.527466 130.437073 130.507111 155.457397 99.642944 155.457397 C 68.778778 155.457397 43.758423 130.437073 43.758423 99.572876 C 43.758423 68.70874 68.778778 43.688354 99.642944 43.688354 C 130.507111 43.688354 155.527466 68.70874 155.527466 99.572876 Z"/>
        <path id="path3" fill="#ffffff" stroke="none" d="M 156.422058 139.292297 L 42.863846 139.292297 C 39.046921 139.292297 36.146164 135.860779 36.781586 132.097107 L 48.063507 65.273438 C 48.564667 62.305054 51.135345 60.132019 54.145767 60.132019 L 145.140137 60.132019 C 148.150543 60.132019 150.721222 62.305054 151.222382 65.273438 L 162.504303 132.097107 C 163.13974 135.860779 160.238953 139.292297 156.422058 139.292297 Z"/>
        <path id="path4" fill="#51e4c2" stroke="none" d="M 64.72467 130.321594 L 79.22467 130.321594 L 79.22467 139.244324 L 64.72467 139.244324 Z"/>
        <path id="path5" fill="#fe3d50" stroke="none" opacity="0.1" d="M 162.305908 130.921814 L 151.222382 65.273438 C 150.721222 62.305054 148.150574 60.131958 145.140137 60.131958 L 54.145767 60.131958 C 51.135376 60.131958 48.564667 62.305054 48.063507 65.273438 L 36.979965 130.921814 C 36.974503 134.244568 39.663177 137.062378 43.113235 137.062378 L 156.172729 137.062378 C 159.622711 137.062378 162.311371 134.244568 162.305908 130.921814 Z"/>
        <path id="path6" fill="#ffffff" stroke="none" d="M 161.334137 125.165955 L 151.222382 65.273438 C 150.721222 62.305054 148.150574 60.131958 145.140137 60.131958 L 54.145767 60.131958 C 51.135376 60.131958 48.564667 62.305054 48.063507 65.273438 L 37.951736 125.165955 C 38.379807 128.0354 40.849487 130.321594 43.934402 130.321594 L 155.351471 130.321594 C 158.436401 130.321594 160.906097 128.0354 161.334137 125.165955 Z"/>
        <path id="path7" fill="#51e4c2" stroke="none" d="M 71.47467 60.131958 L 64.72467 130.321594 L 79.22467 130.321594 L 83.22467 60.131958 Z"/>
        <path id="path8" fill="#51e4c2" stroke="none" d="M 42.651001 97.33197 L 156.634857 97.33197 L 158.605652 109.005005 L 40.584381 109.005005 Z"/>
        <path id="path9" fill="#2283f6" stroke="none" d="M 140.798798 53.197205 C 140.798798 64.420471 123.979431 82.907104 118.18219 89.39386 C 117.147141 90.552002 115.344543 90.552002 114.309494 89.39386 C 108.512253 82.907104 91.692871 64.420471 91.692871 53.197205 C 91.692871 39.636963 102.685608 28.644226 116.245834 28.644226 C 129.806061 28.644226 140.798798 39.636963 140.798798 53.197205 Z"/>
        <path id="path10" fill="#252528" stroke="none" opacity="0.2" d="M 128.088898 55.563416 C 128.088898 62.104187 122.786575 67.406494 116.245834 67.406494 C 109.705078 67.406494 104.402756 62.104187 104.402756 55.563416 C 104.402756 49.022644 109.705078 43.720337 116.245834 43.720337 C 122.786575 43.720337 128.088898 49.022644 128.088898 55.563416 Z"/>
        <path id="path11" fill="#51e4c2" stroke="none" d="M 128.088898 53.563416 C 128.088898 60.104187 122.786575 65.406494 116.245834 65.406494 C 109.705078 65.406494 104.402756 60.104187 104.402756 53.563416 C 104.402756 47.022644 109.705078 41.720337 116.245834 41.720337 C 122.786575 41.720337 128.088898 47.022644 128.088898 53.563416 Z"/>
        <path id="path12" fill="#2283f6" stroke="none" opacity="0.2" d="M 128.088898 90.262451 C 128.088898 92.297791 122.786575 93.947815 116.245834 93.947815 C 109.705093 93.947815 104.402771 92.297791 104.402771 90.262451 C 104.402771 88.227112 109.705093 86.577087 116.245834 86.577087 C 122.786575 86.577087 128.088898 88.227112 128.088898 90.262451 Z"/>
        <path id="path13" fill="#ffffff" stroke="none" opacity="0.2" d="M 125.304794 55.563416 C 125.304794 60.566528 121.248962 64.622375 116.245834 64.622375 C 111.242706 64.622375 107.186874 60.566528 107.186874 55.563416 C 107.186874 50.560303 111.242706 46.504456 116.245834 46.504456 C 121.248962 46.504456 125.304794 50.560303 125.304794 55.563416 Z"/>
        <path id="path14" fill="#ffffff" stroke="none" d="M 125.304794 53.563416 C 125.304794 58.566528 121.248962 62.622375 116.245834 62.622375 C 111.242706 62.622375 107.186874 58.566528 107.186874 53.563416 C 107.186874 48.560303 111.242706 44.504456 116.245834 44.504456 C 121.248962 44.504456 125.304794 48.560303 125.304794 53.563416 Z"/>
    </g>
</svg>
